<?xml version="1.0" encoding="UTF-8" standalone="no"?>
<!-- Created with Inkscape (http://www.inkscape.org/) -->

<svg
   xmlns:dc="http://purl.org/dc/elements/1.1/"
   xmlns:cc="http://creativecommons.org/ns#"
   xmlns:rdf="http://www.w3.org/1999/02/22-rdf-syntax-ns#"
   xmlns:svg="http://www.w3.org/2000/svg"
   xmlns="http://www.w3.org/2000/svg"
   xmlns:sodipodi="http://sodipodi.sourceforge.net/DTD/sodipodi-0.dtd"
   xmlns:inkscape="http://www.inkscape.org/namespaces/inkscape"
   width="625.2mm"
   height="97.74mm"
   viewBox="0 0 625.2 97.74"
   version="1.1"
   id="svg8"
   inkscape:version="0.92.1 r15371"
   sodipodi:docname="lille.svg">
  <defs
     id="defs2" />
  <sodipodi:namedview
     id="base"
     pagecolor="#ffffff"
     bordercolor="#666666"
     borderopacity="1.0"
     inkscape:pageopacity="0.0"
     inkscape:pageshadow="2"
     inkscape:zoom="0.35"
     inkscape:cx="1472"
     inkscape:cy="138.6"
     inkscape:document-units="mm"
     inkscape:current-layer="layer1"
     showgrid="false"
     fit-margin-top="0"
     fit-margin-left="0"
     fit-margin-right="0"
     fit-margin-bottom="0"
     inkscape:window-width="1920"
     inkscape:window-height="1021"
     inkscape:window-x="1920"
     inkscape:window-y="26"
     inkscape:window-maximized="1" />
  <metadata
     id="metadata5">
    <rdf:RDF>
      <cc:Work
         rdf:about="">
        <dc:format>image/svg+xml</dc:format>
        <dc:type
           rdf:resource="http://purl.org/dc/dcmitype/StillImage" />
        <dc:title></dc:title>
      </cc:Work>
    </rdf:RDF>
  </metadata>
  <g
     inkscape:label="Calque 1"
     inkscape:groupmode="layer"
     id="layer1"
     transform="translate(231.2,-104.2)">
    <path
       style="fill:#555f69;stroke-width:0.2646;fill-opacity:1"
       d="m -231.2,194.3 v -7.7 l 2.1,-0.2 2.1,-0.2 v -1 c 0,-1.2 -1.3,-0.9 12.2,-2.1 5.4,-0.5 9.6,-1 9.2,-1.1 -0.5,-0.1 -0.5,-0.2 0.3,-0.3 2,-0.4 12.4,-1.3 13.4,-1.2 l 1.2,0.1 v -3.3 c 0,-5.8 -0.1,-5.2 0.8,-5.3 0.8,-0.1 0.9,-0.2 2.1,-3.5 l 1.3,-3.3 1.4,-0.2 1.4,-0.3 0.9,-2.5 0.9,-2.4 1.1,-0.1 1.1,-0.2 2.1,5.9 2,5.8 1,0.2 0.9,0.2 -0.2,3.3 c -0.1,2.2 -0.1,3.4 0.1,3.5 0.1,0.1 0.1,0.6 -0.2,1.6 -0.3,0.8 -0.5,2.1 -0.6,2.9 v 1.5 h 2.1 c 1.1,0 3,0.1 4.1,0.2 2,0.2 2,0.2 2,0.9 0,0.7 0,0.8 1.7,0.8 l 1.6,0.1 v 1 c -0.1,1 -0.1,1 0.8,1 0.6,0 0.9,0.1 0.9,0.3 0,0.2 0.7,0.3 2.4,0.2 l 2.4,-0.2 v 1.1 c 0,1.1 0.1,1.2 0.8,1.3 0.3,0.1 3.6,0 7.1,-0.2 6.5,-0.2 6.5,-0.2 6.5,-0.9 0,-0.5 0.1,-0.5 1.9,-0.5 1.8,0 1.9,0 1.9,0.5 -0.1,0.8 1,1.1 1.2,0.3 0.1,-0.4 0.1,-0.4 0.2,0 0,0.4 0.3,0.5 1.8,0.5 h 1.8 l -0.1,-2.7 c -0.1,-2.4 -0.1,-2.7 0.3,-2.5 0.6,0.2 1.3,-0.5 1.9,-2 0.4,-1 0.7,-1.2 1.2,-1.3 1.5,-0.2 1.9,0 2.6,1.4 0.6,1.2 0.9,1.4 1.6,1.5 l 0.8,0.1 v 1.9 c 0,1.1 -0.2,2.4 -0.4,3 l -0.4,1.1 h 2.2 c 1.9,0 2.3,-0.1 2.4,-0.5 0.4,-0.8 0.6,0.7 0.7,3.6 0,2.7 0,2.7 0.7,2.7 0.5,0 0.6,-0.1 0.6,-0.9 v -0.9 h 2.3 2.2 v 0.9 c 0,0.8 0.1,0.9 0.8,1 0.4,0.1 0.9,0.2 1.1,0.3 0.4,0.2 0.4,-0.5 0.6,-7 0.2,-8.5 0.6,-12.4 1.6,-13.4 1.2,-1.4 5.3,-8.1 5.5,-9 l 0.2,-1 v 0.9 c 0,0.7 0.6,2 2.1,4.5 1.2,2 2.2,3.7 2.3,3.7 0.2,0.2 0.69,-0.4 0.69,-0.8 0.1,-0.2 0.2,-0.7 0.4,-1.2 0.3,-0.7 0.5,-0.8 0.9,-0.7 0.5,0.1 1.5,-1.1 1.5,-1.8 0,-0.7 0.3,-1.3 0.7,-1.1 0.5,0.2 1.4,-1.3 1.5,-2.6 l 0.1,-1.1 0.1,1.2 c 0,0.8 0.1,1.3 0.3,1.3 0.2,0 0.9,-0.8 1.4,-1.7 0.9,-1.3 1.1,-1.9 1.3,-3.3 l 0.1,-1.8 v 1.6 c 0.1,1.5 0.3,2 1.8,5 1.5,2.8 1.9,3.3 2.1,3 0.2,-0.2 1.1,-1.7 2.1,-3.3 1.3,-2.2 1.8,-3.3 1.8,-4 0,-0.9 0,-0.9 0.3,-0.4 0.4,0.5 0.4,0.5 0.6,-0.2 0,-0.3 0.2,-1.1 0.2,-1.7 0.1,-1 0.1,-1 0.1,0.2 0.1,1 0.5,1.9 2.2,5 1.2,2.1 2.4,4.1 2.6,4.4 0.4,0.7 0.4,0.6 2,-2.2 0.9,-1.6 1.7,-3.3 1.9,-3.8 0.2,-0.6 0.4,-0.7 0.4,-0.4 0,0.5 1.8,3.8 2.2,3.8 0.1,0 0.2,-0.4 0.2,-1 l 0.2,-1 v 1 c 0,1.4 1,2.7 1.6,2.5 0.4,-0.1 0.6,0 0.8,0.5 0.2,0.4 0.2,0.9 0.1,1.1 -0.2,0.7 0.4,1.5 1,1.3 0.3,-0.1 0.5,0 0.7,0.7 0.2,0.4 0.3,0.9 0.2,1 -0.1,0.1 0,0.3 0.1,0.4 0.2,0.1 0.3,0 0.3,-0.3 0,-0.4 0.1,-0.4 0.2,-0.1 0.2,0.2 1,-0.8 2.5,-2.9 1.3,-1.7 2.4,-3.2 2.5,-3.2 0.1,0 1.4,1.8 2.7,4 3.1,4.9 4,5.8 4.1,4.4 0,-1 0.4,3.1 0.4,5.4 0,1.3 0.2,2.8 0.4,3.4 0.3,0.8 0.4,2.2 0.4,4.6 0,2.2 0.1,3.3 0.3,3.2 0.1,-0.1 0.3,-0.9 0.3,-1.9 0,-1.4 0.1,-1.9 0.5,-2.4 0.3,-0.4 0.5,-1 0.5,-1.3 0,-0.4 0.2,-0.6 0.4,-0.6 0.3,0 1.3,-0.7 2.2,-1.5 1,-0.8 1.9,-1.5 2.1,-1.6 0.2,-0.1 0.3,-0.6 0.3,-1.7 0,-1.5 0,-1.5 0.8,-1.5 0.7,0 1,-0.4 3.2,-3.7 1.4,-2.1 2.5,-3.7 2.6,-3.7 0.1,0 1.2,1.4 2.4,3.1 1.9,2.9 2.3,3.2 3,3.2 0.7,0 0.7,0 0.7,1.6 0,0.9 0.1,1.6 0.3,1.6 0.1,0 1.1,0.6 2.3,1.3 1.1,0.7 2.3,1.3 2.5,1.3 0.3,0 0.5,0.2 0.5,0.7 0,0.6 0,0.6 2.4,0.7 l 2.4,0.1 0.4,0.9 c 0.2,0.7 0.3,0.8 0.5,0.5 0.1,-0.3 0.4,-0.4 0.7,-0.3 0.4,0.1 0.5,0.4 0.5,1.4 0,1.1 0.1,1.3 0.5,1.3 0.5,0 0.5,0.2 0.5,1 0,1 0.2,1.2 1,1.4 0.4,0 1,1.9 1.2,3.8 0.1,1.1 0.1,-1.9 0.2,-6.8 v -8.6 l 1.7,-2.6 1.6,-2.5 h 1.5 c 1.6,0 1.6,0 1.6,-0.8 0,-0.4 0.1,-0.8 0.2,-0.8 0.1,0 0.3,-0.3 0.4,-0.7 l 0.1,-0.7 v 0.7 c 0.1,1 0.5,0.9 0.7,-0.1 l 0.1,-0.9 v 0.9 c 0,0.4 0.2,0.8 0.3,0.8 0.2,0 0.3,-0.8 0.3,-2.1 0,-1.8 -0.1,-2.2 -0.6,-2.7 l -0.6,-0.6 0.6,-0.1 c 0.6,0 0.6,-0.2 0.5,-0.9 -0.1,-0.9 0,-0.9 0.7,-1 0.8,-0.1 0.8,-0.2 0.9,-1.5 0.1,-0.8 0,-1.4 -0.2,-1.4 -0.1,0 -0.3,-0.2 -0.3,-0.5 0,-0.3 0.2,-0.5 0.5,-0.5 0.299,0 0.399,-0.2 0.299,-1.1 -0.1,-0.6 -0.1,-1.1 0.1,-1.2 0.1,-0.1 0.4,-0.5 0.5,-0.9 0.3,-0.6 0.3,-0.6 0.4,-0.1 0.1,0.3 0.3,0.7 0.5,0.9 0.3,0.4 0.4,0.5 0.1,0.6 -0.5,0.2 0.2,0.7 1.101,0.7 0.5,0 0.6,-0.1 0.5,-0.7 -0.1,-0.3 -0.1,-0.6 0.1,-0.6 0.1,0 0.1,-0.3 0,-0.7 -0.1,-0.4 0,-0.6 0.1,-0.6 0.2,0 0.3,-0.6 0.3,-1.3 0,-1.1 0.1,-1.4 0.7,-1.8 0.4,-0.2 0.7,-0.6 0.6,-1 0,-0.3 0.1,-0.6 0.2,-0.6 0.1,0 0.2,0.3 0.2,0.6 0,0.4 0.2,0.7 0.6,1 0.4995,0.4 0.5995,0.6 0.5995,1.8 v 1.3 l 1.2,-0.1 1.1005,-0.1 3.396,-5.2 c 1.8,-2.9 3.6,-5.7 3.9,-6.2 0.4,-0.8 0.6,-0.9 1.2,-0.8 0.304,0.1 0.604,0 0.604,-0.1 0,-0.1 0.3,-0.2 0.6,-0.2 0.5,0 0.8,0.3 1.2,1.2 0.6,1.1 0.6,1.1 1.9,1.1 h 1.4 v -2.5 c 0,-1.5 0.1,-2.5 0.2,-2.5 0.1,0 0.3,-0.4 0.3,-0.8 0,-0.8 0,-0.8 0.6,-0.4 0.3,0.2 0.6,0.6 0.7,0.9 0,0.6 0.1,0.6 7.1,0.6 6,0 7.19,-0.1 7.46,-0.4 0.21,-0.3 0.31,-1.4 0.31,-3.5 0,-2.8 0.1,-3.1 0.56,-3.5 0.45,-0.4 0.45,-0.6 0.24,-0.9 -0.35,-0.4 -0.19,-1.2 0.21,-1.2 0.26,0 0.26,-0.3 0.26,-0.6 0,-1.3 0,-3 0.27,-2.8 0,0.1 0,0.9 0,1.7 0,0.8 0.26,1.7 0.26,1.8 0.27,0.2 0.27,0.7 0.27,1.1 -0.27,0.4 -0.27,0.7 0.26,0.9 0.27,0.3 0.53,0.6 0.27,2.3 0,1.1 0,2.5 0,3.1 l 0.26,1.2 h 7.94 c 7.67,0 7.94,0 7.94,-0.5 0,-0.3 0,-0.6 0.26,-0.6 0.26,0 0.26,-0.4 0.26,-0.9 0,-0.8 0,-0.9 0.53,-0.8 0,0.1 0.27,0.1 0.53,0.1 0,0 0,0.4 0,0.8 0,0.8 0,0.8 1.86,0.9 l 1.85,0.1 v 5.2 c 0,5 0,5.1 0.53,5.7 l 0.79,0.6 v -1 c 0.26,-0.6 0.26,-1.2 0.26,-1.5 0,-0.3 0,-0.9 0.27,-1.4 0,-0.4 0,-1.2 0,-1.8 0.26,-1.4 0.53,-1.5 0.53,-0.1 0,0.6 0,1.4 0,1.7 0,0.3 0.26,0.7 0.26,0.9 0.27,0.2 0.53,0.8 0.53,1.2 0,3.6 0,4.1 0.53,4.1 0.27,0 0.27,-0.5 0.27,-2.5 0,-2.1 0,-2.5 0.53,-2.5 0.26,0 0.26,-0.3 0.26,-1.1 0,-0.6 0,-1.1 0.26,-1.1 0.27,0 0.27,0.4 0.27,0.9 0,0.6 0.26,1 0.53,1.1 0.26,0.1 0.26,0.7 0.26,2.6 0,2 0,2.6 0.53,2.9 0,0.1 0.27,0.2 0.27,0.2 0.26,-0.1 0.26,-1.1 0.26,-2.3 0,-1.2 0.27,-2.3 0.27,-2.4 0.26,0 0.26,-0.4 0.26,-0.8 0,-1 0.26,-0.6 0.26,0.8 0.27,0.7 0.27,1.4 0.53,1.6 0,0.2 0,1 0,1.8 0,1.7 0.27,1.8 1.86,1.4 l 0.53,-0.2 v -4.5 c -0.27,-2.5 -0.27,-4.9 -0.27,-5.4 -0.53,-2.2 -0.53,-2.8 -1.06,-3.3 -0.26,-0.4 -0.26,-0.5 0,-0.9 0.53,-0.4 0.53,-1.1 0.53,-3.7 0,-2.8 0,-3.2 -0.53,-3.6 l -0.53,-0.5 0.53,-0.6 c 0.53,-0.5 0.53,-0.8 0.27,-2.4 0,-1 0,-2.1 -0.27,-2.4 0,-0.3 0.27,-1 0.8,-1.5 0.53,-0.8 0.53,-1.1 0.26,-1.5 -0.26,-0.4 -0.26,-0.6 0,-0.8 0,-0.2 0.27,-1.1 0.27,-2 0,-2.2 0.26,-2.2 0.52,-0.1 0,0.9 0.27,1.8 0.27,2 0.26,0.2 0.26,0.6 0.26,0.9 -0.26,0.3 0,0.8 0.27,1.4 l 0.53,0.8 v -0.9 c 0,-0.5 0,-2.4 0.26,-4.3 0,-2.6 0,-3.4 -0.26,-3.7 -0.27,-0.4 -0.27,-0.5 0,-0.9 0.26,-0.3 0.53,-0.9 0.79,-1.4 0.27,-0.6 0.53,-1.2 0.79,-1.5 0.27,-0.2 0.53,-0.6 0.27,-0.9 0,-0.2 0.26,-0.6 0.26,-0.7 0.8,-0.5 1.06,-2.2 0.8,-2.5 -0.53,-0.5 -0.27,-1.6 0.53,-2.4 0.26,-0.5 0.53,-1.1 0.53,-1.8 0,-0.5 0,-2.1 0.26,-3.6 0.26,-2.5 0.26,-1.8 0.26,1 0,0.7 0,1.3 0.27,1.4 0,0.1 0.26,0.6 0,1.1 0,0.7 0,1.1 0.53,1.9 0.79,0.9 0.79,1.2 0.53,2.8 v 1.7 l 1.06,1.3 c 0.79,0.8 1.32,1.3 1.05,1.4 -0.52,0.3 0,2.1 0.53,2.7 0.53,0.5 0.8,1 0.27,1 -0.27,0 -0.27,1.2 -0.27,3.1 0,3.4 0.27,6.7 0.53,6.7 0.27,0 0.8,-1.3 0.53,-1.9 0,-0.2 0,-0.6 0.27,-0.8 0,-0.2 0.26,-0.8 0.26,-1.4 0,-1.8 0,-2.6 0.27,-2.4 0,0 0,0.9 0,1.8 0,1 0,1.8 0.26,1.9 0.26,0.1 0.26,0.5 0.26,0.8 0,0.4 0,1 0.27,1.3 0.26,0.3 0.26,1.6 0.26,2.9 0,2.7 0,3.4 0.8,3.4 0.26,0 0.26,0 0,0.2 -0.53,0.3 -0.8,8 -0.27,8.6 0.27,0.3 0.27,0.5 0,0.9 -0.26,0.3 -0.53,1.2 -0.79,2 0,0.8 -0.27,1.5 -0.27,1.5 -0.26,0 -0.26,1.7 -0.26,3.8 0,2.7 0,3.4 0.26,2.7 0.27,-0.6 0.27,-1.5 0.27,-2.1 0,-0.7 0,-1 0.53,-1 0,0 0.26,-0.2 0.26,-0.7 0,-0.4 0.27,-1 0.27,-1.3 0.26,-0.4 0.26,-0.2 0.26,0.8 0,0.7 0,1.2 0.27,1.2 0.26,0 0.26,0.6 0.26,1.3 v 1.3 l 1.06,-0.5 c 0.79,-0.2 1.32,-0.7 1.32,-0.9 0.27,-1.2 0.27,-1.3 0.53,-0.5 0.27,0.7 0.27,0.7 0.53,0.2 0,-0.4 0.27,-0.5 0.27,-0.4 0,0.2 0.79,0 1.85,-0.6 l 1.59,-0.8 3.17,0.3 3.22,0.2 v -1 c 0.2,-1.6 1.5,-2.4 2.6,-1.7 0,0.1 0.3,0.1 0.3,-0.1 0.5,-0.4 0.8,-0.2 0.8,0.3 0,0.3 0.2,0.5 0.2,0.5 0.61,0 0.81,0.6 0.81,1.8 v 0.8 l 3.2,0.2 c 1.6,0.1 3.4,0.3 4,0.3 0.8,0.2 0.8,0.1 0.8,-0.5 0,-0.3 0.2,-0.8 0.5,-1.1 0.3,-0.3 0.5,-0.6 0.5,-0.7 0,-0.3 0.8,-1 0.8,-1 0.3,0 0.3,0.2 0.3,0.5 0,0.5 0.2,0.5 1,0.5 h 1.1 v 1.4 c 0,1.1 0,1.3 0.5,1.3 0.6,0 3.2,0.2 7.4,0.6 1.6,0.2 1.6,0.2 1.6,-0.5 0,-0.8 1.9,-2.5 2.9,-2.5 0.6,0 0.6,0.1 0.6,1.7 v 1.7 l 0.7,0.1 c 0.8,0.2 9,1 9.3,1 0.3,0 0.5,-0.8 0.8,-1.7 0.5,-1.5 0.8,-1.9 1.9,-2.6 1,-0.7 1,-0.8 1,-2.1 0,-1 0,-1.3 0.5,-1.3 0,0 0.3,-0.1 0.3,-0.3 0,-0.1 0,-0.2 0.3,-0.1 0.2,0.1 0.2,0.8 0.2,1.5 0,1.1 0,1.3 0.6,1.3 0.5,0 0.5,0.2 0.5,1.3 0,0.7 0,1 0.3,0.6 0,-0.7 0.5,-0.8 0.5,0 0,0.2 0,0.5 0.3,0.5 0.2,0 1.3,0.8 2.3,1.8 1.9,1.7 2.2,1.9 2.9,1.7 0.8,-0.1 1.1,0 3,1.8 1.3,1.1 2.3,2 2.3,2.1 0,0 0,0.1 -0.2,0.2 -0.8,0.3 -0.3,1.2 1.3,2.2 1.3,0.8 1.8,1 2.9,1 1.9,0 1.9,0.6 0,2.1 l -1.1,1.2 v 2.8 2.8 l 6.7,-6.5 6.3,-6.5 v -2.6 -2.5 h 0.5 c 0.6,0 0.8,-0.2 0.8,-0.4 0,-0.2 0.3,-0.4 0.6,-0.4 0,0 0.2,0.1 0.2,0.2 0,0.1 0.3,0.3 0.8,0.4 0.8,0.3 0.8,0.3 0.8,1.8 v 1.5 h 4.3 4.2 v -1.7 -1.7 h 1.3 c 1.6,0 2.4,0.4 1.9,1.1 -0.3,0.2 -0.3,0.7 -0.3,1.1 v 0.7 h 5 c 4.5,0 5,0 5,-0.4 -0.2,-0.2 -0.2,-0.6 -0.5,-0.8 0,-0.2 0,-0.4 0.3,-0.4 0.2,0 0.5,-0.2 0.5,-0.6 0,-0.6 0.3,-0.7 1.1,-1 l 1,-0.2 v -2.7 c 0,-1.8 0,-2.9 -0.2,-3.1 -0.3,-0.2 -0.3,-0.4 0,-0.6 0.2,-0.3 0.5,-0.5 0.5,-0.7 -0.3,-0.1 0,-0.5 0.5,-0.9 0.3,-0.4 0.6,-0.7 0.3,-0.9 -0.3,-0.2 -0.3,-0.4 0,-0.5 0.3,-0.2 0.3,-2.7 0,-2.9 -0.3,-0.2 0,-0.4 0.3,-0.7 0.2,-0.3 0.5,-0.7 0.5,-0.9 0,-0.2 0.2,-0.5 0.5,-0.6 0.3,-0.1 0.3,-0.4 0.3,-1 -0.3,-0.4 0,-1.3 0,-2 0.2,-1 0.2,-1.1 0.2,-0.6 0.3,0.4 0.6,0.5 0.6,0.4 0.2,-0.1 0.2,0 0,0.3 0,0.2 -0.3,0.6 0,0.8 0,0.3 0,0.4 -0.3,0.4 -0.3,0 -0.3,0.4 -0.3,0.8 0,0.5 0,0.8 0.3,0.8 0,0 0.3,0.3 0.5,0.6 0,0.4 0.3,0.9 0.6,1.1 0.2,0.4 0.2,0.6 0,0.6 -0.3,0.2 -0.6,2.6 0,2.9 0,0 0.2,0.3 0,0.6 0,0.3 0.2,0.6 0.2,0.8 0.3,0.2 0.6,0.6 0.6,0.8 0,0.3 0.2,0.6 0.5,0.8 0.2,0.3 0.2,0.4 0,0.8 -0.5,0.6 -0.8,5.5 -0.3,5.7 0.3,0.1 0.8,0.2 1.1,0.2 0.5,0.2 0.8,0.4 0.8,0.9 0,0.3 0,0.7 0.2,0.8 0.3,0.1 0.3,0.4 0.3,0.8 -0.3,0.6 -0.3,0.6 2.1,0.6 1.6,0 2.1,-0.1 2.1,-0.4 0,-0.3 0.3,-0.4 0.8,-0.3 0.6,0 0.8,-0.1 0.8,-0.5 0,-0.3 0.3,-0.7 0.6,-1 0.2,-0.2 0.2,-0.2 0.2,0.2 -0.2,0.3 0,0.4 0.3,0.4 0.8,0 1.8,0.9 1.8,1.4 0,0.1 0.6,0.2 1.1,0.2 h 0.8 v -1.6 l -0.3,-1.6 h 1.6 1.6 l -0.3,1.6 v 1.6 h 5.1 5 v -1.6 l -0.3,-1.6 h 2.1 2.1 l -0.2,2.6 v 2.4 l 5.5,6.4 5.6,6.3 v -3.1 -3.2 h 1.6 c 1.3,0 2.1,-0.4 2.1,-1.1 0,-0.2 0.3,-0.5 0.5,-0.5 0.6,-0.2 0.6,0 0.6,0.5 0,1.4 0.5,1.6 3.7,1.6 h 2.9 v -0.6 c 0,-0.4 0.2,-0.7 0.5,-0.7 0,0 0.3,-0.2 0.3,-0.4 0,-0.3 0.2,-0.3 1.8,-0.2 1.3,0.1 1.6,0.1 2.1,-0.3 0.3,-0.5 0.3,-0.5 0.6,0.1 0,0.5 0.2,0.6 1.3,0.4 0.8,-0.1 1.3,-0.1 1.6,0.2 0,0.3 0.2,0 0.2,-0.8 l 0.3,-1.2 v 1.1 c 0,1 0,1.1 0.3,0.8 0.2,-0.3 0.5,-0.7 0.5,-1.1 0,-0.6 0,-0.7 0.5,-0.6 0.3,0 0.8,0.3 0.8,0.6 0.3,0.3 0.6,0.6 0.6,0.6 0,0.1 0.2,0 0.2,-0.3 0.5,-0.7 1.6,-0.8 2.4,-0.2 0.5,0.3 1.1,0.5 1.8,0.5 1.1,0 1.1,0 1.1,-0.8 v -0.8 l 1.3,0.1 c 0.8,0.1 1.6,0 2.1,-0.1 0.6,-0.3 0.8,-0.3 1.4,0 0.2,0.1 1,0.3 1.6,0.3 h 1 v -5.5 c 0,-5.2 0,-5.5 -0.5,-6 -0.5,-0.4 -0.5,-0.8 -0.5,-2.4 0,-1.5 0,-1.9 0.5,-2.2 0.2,-0.2 0.5,-0.6 0.5,-1 0,-0.4 0.3,-0.6 0.5,-0.6 0.3,0 0.6,-0.3 0.8,-0.7 0,-0.3 0.3,-0.7 0.6,-0.7 0.2,-0.3 0.2,-4 0,-4.2 -0.3,0 -0.3,-1.5 -0.3,-3.1 0,-2.8 0,-3.2 0.5,-4.7 0.6,-1.1 0.8,-1.7 1.4,-1.9 0.7,-0.4 1,-1.1 0.5,-1.6 -0.5,-0.4 0.5,-1.7 1,-1.6 0.8,0.1 1.1,1.6 0.6,2.5 -0.6,0.6 -0.6,0.7 0,1.5 0.5,0.4 0.8,0.9 0.8,1.2 0,0.2 0.5,1.1 1,2.1 0.6,1.1 0.8,1.9 0.8,2.4 l -0.2,0.7 v -0.8 c -0.3,-0.4 -0.6,-1.1 -1.1,-1.5 l -0.5,-0.8 v 0.9 c 0.2,0.5 0.2,1.9 0.5,3.1 0,1.8 0,2.3 -0.5,2.9 -0.3,0.6 -0.3,1.5 0,4.3 0.2,0.6 1,1.1 1,0.5 0,-0.1 0.3,-0.3 0.6,-0.3 0.7,0 1.3,1.2 0.7,1.7 0,0.2 -0.2,1.1 -0.2,2.1 0,1.5 0,1.9 -0.5,2.1 -0.6,0.3 -0.6,0.7 -0.6,3.1 0,2 0,2.7 0.3,2.7 0.3,0 4.7,-0.2 10,-0.5 5.3,-0.3 10.1,-0.6 10.4,-0.6 0.5,0 1,0.3 1.8,1.7 l 1.1,1.7 v 6.4 c 0,5.5 0,6.4 0.5,6.4 0.3,0 0.3,-0.3 0.3,-1.1 0,-0.9 0,-1 0.5,-1 0.5,0 0.5,-0.2 0.5,-1 0,-0.7 0,-0.9 0.6,-0.9 0.5,0 0.5,-0.2 0.5,-0.9 0,-0.8 0,-1 0.5,-1 0.5,0 0.5,-0.1 0.5,-0.9 0,-0.7 0,-0.9 0.6,-0.9 0.5,0 0.5,-0.2 0.5,-0.9 0,-0.8 0,-1 0.5,-1 0.6,0 0.6,-0.1 0.6,-0.9 0,-0.7 0,-0.9 0.5,-0.9 0.5,0 0.5,-0.2 0.5,-0.9 0,-0.8 0,-1 0.5,-1 0.6,0 0.6,-0.1 0.6,-1 0,-0.9 0,-1.1 0.5,-1.1 0.5,0 0.5,-0.2 0.5,-0.9 0,-0.7 0,-0.9 0.6,-0.9 0.5,0 0.5,-0.2 0.5,-1 0,-0.7 0,-0.9 0.5,-0.9 0.5,0 0.5,-0.2 0.5,-1 0,-0.9 0,-1.1 0.6,-1.1 0.5,0 0.5,-0.2 0.5,-1.1 0,-0.8 0,-1 0.5,-1 0.6,0 0.6,-0.2 0.6,-2.4 0,-1.3 0,-2.5 0,-2.6 -0.3,-0.3 0,-0.9 0.2,-0.7 0.3,0.1 0.3,0 0.3,-0.2 0,-0.2 0,-0.2 0.5,0.1 0.3,0.2 0.3,0.2 0.3,-0.3 0,-0.3 0,-0.5 0.3,-0.5 0.2,0 0.2,0.2 0.2,0.5 0,0.6 0.5,0.7 0.5,0.1 0.3,-0.4 0.3,-0.4 0.6,-0.1 0.2,0.2 0.2,1.2 0.2,3.2 0,2.7 0,2.8 0.6,3 0.5,0.1 0.5,0.3 0.5,1.1 0,0.6 0,0.9 0.3,0.9 0.2,0 0.5,0.3 0.5,1 0,0.8 0.3,1 0.8,1.1 0.5,0 0.5,0.2 0.5,1 0,0.6 0,0.9 0.5,0.9 0.3,0 0.3,0.3 0.3,0.9 0,0.8 0,0.9 0.8,0.9 0.5,0 0.5,0.1 0.5,1.1 0,0.9 0,1 0.6,1 0.5,0 0.5,0.2 0.5,1 0,0.6 0,0.9 0.5,0.9 0.3,0 0.3,0.3 0.3,0.9 0,0.8 0,0.9 0.8,0.9 0.5,0 0.5,0.1 0.5,1 0,0.7 0,0.9 0.5,0.9 0.6,0 0.6,0.2 0.6,0.9 0,0.7 0,0.9 0.5,1 0.3,0.1 0.5,0.4 0.5,1 0,0.6 0,0.8 0.6,0.8 0.5,0 0.5,0.2 0.5,0.9 0,0.8 0,1 0.5,1 0.5,0 0.5,-0.1 0.3,-0.6 -0.6,-0.4 -0.6,-0.6 -0.3,-1.3 0.5,-1 1.1,-1.6 2.4,-2 0.8,-0.3 1,-0.5 1,-1.1 0,-0.5 0,-0.9 0.3,-0.9 0,0 0.3,-1.3 0.3,-2.9 l 0.2,-2.9 h 3.5 3.4 v -6.8 l 0.3,-6.8 v 6.8 6.8 h 1.3 1.1 v 1.2 1.2 h 2.9 c 2.4,0 2.9,-0.1 2.9,-0.4 0,-0.2 0,-0.4 -0.3,-0.4 -0.8,0 0,-0.6 2.4,-1.9 2.7,-1.4 2.9,-1.8 2.7,-2.7 -0.3,-0.3 -0.3,-0.5 0,-0.8 0.2,-0.4 0.5,-0.4 1,-0.1 0.3,0.4 0.3,0.6 0,0.9 -0.3,0.9 0,1.4 2.4,3 2.4,1.5 2.4,1.7 2.1,2.1 -0.3,0.3 -0.5,0.8 -0.5,1.2 v 0.7 l 3.2,-0.1 3.1,-0.1 v -1.1 -1.1 h 4.3 4.2 v 1.2 c 0,0.7 0,1.2 0.3,1.2 0.2,0 0.2,0.9 0.2,2.3 0,2.7 0,2.9 1.9,2.5 0.5,-0.2 1,-0.2 1.3,-0.1 0,0.1 0.3,1 0.5,2.1 0.3,2.2 0.3,2.2 2.4,-0.4 0.8,-0.9 1.6,-1.6 1.6,-1.6 0,0 1.1,1.1 1.8,2.3 l 1.9,2.2 v 14.7 14.6 h -312.48 -312.72 z m 593.7,-42.9 c 0,-0.2 0,-0.3 0.3,-0.3 0.2,0 0.2,0.1 0.2,0.3 0,0.1 0,0.2 -0.2,0.2 -0.3,0 -0.3,-0.1 -0.3,-0.2 z"
       id="path4496"
       inkscape:connector-curvature="0" />
  </g>
</svg>
